<?xml version="1.0" encoding="utf-8"?>
<!-- Generator: Adobe Illustrator 25.4.1, SVG Export Plug-In . SVG Version: 6.00 Build 0)  -->
<svg version="1.1" id="Capa_1" xmlns="http://www.w3.org/2000/svg" xmlns:xlink="http://www.w3.org/1999/xlink" x="0px" y="0px"
	 viewBox="0 0 1080 1080" style="enable-background:new 0 0 1080 1080;" xml:space="preserve">
<style type="text/css">
	.st0{fill:#FFFFFF;}
</style>
<g>
	<path class="st0" d="M578,1042.6c-0.4-5.9-0.8-9.7-0.8-13.6c0.3-58.4,0.8-116.9,1-175.3c0.4-138.2,0.7-276.4,1.1-414.6
		c0.1-57.8,0.1-115.5,0.3-173.3c0.1-23.2,1.9-24.9,24.8-24.9c113.7,0.1,227.4,0.1,341.1,0.3c4.6,0,9.2,2.1,13.8,3.3
		c-2.5,4-4.4,8.5-7.6,11.9c-18.5,20.2-37.5,39.9-55.7,60.3c-3.3,3.7-4.7,10.3-4.8,15.6c-0.6,29.2-0.7,58.4-0.7,87.6
		c0.1,97.1,0.2,194.2,0.6,291.3c0,11.8-3.5,21.4-11.8,29.7c-40.6,41-81.1,82.2-121.8,123.1c-56.5,56.7-113.1,113.1-169.7,169.6
		C585.1,1036.3,582.3,1038.7,578,1042.6z M665.7,577.6c0.1,0,0.3,0,0.4,0c0,58.7-0.1,117.3,0,176c0,25.2,0.3,50.3,0.8,75.5
		c0,2.4,1.7,4.7,2.5,7.1c1.6-1,3.6-1.6,4.9-2.9c40.8-40.5,81.5-81.1,122.3-121.6c4.3-4.2,6.4-8.8,6.4-14.9c0-32.8,0.3-65.6,0.3-98.4
		c0-89.9-0.1-179.8-0.2-269.7c0-9.4-1.6-11.6-9.8-11.7c-39.1-0.4-78.2-0.5-117.3-0.8c-6.3,0-9.7,2.9-9.9,9.2
		c-0.2,7.6-0.5,15.3-0.5,22.9C665.6,424.8,665.7,501.2,665.7,577.6z"/>
	<path class="st0" d="M500.2,1039.7c-2.4-1.9-4.9-3.5-7.1-5.6c-39.9-39.8-79.7-79.8-119.6-119.6c-33.1-33-66.4-65.8-99.4-98.8
		c-26.2-26.2-52.1-52.8-78.2-79c-5.5-5.5-7.5-11.8-7.5-19.4c0.3-53.5,0.5-107,0.7-160.4c0-8.3-0.2-16.6,0-24.9c0.1-2,1.5-4,2.3-5.9
		c1.9,1,4.2,1.6,5.6,3c17.2,17.1,34.3,34.3,51.4,51.5c5.4,5.4,10.6,10.9,16,16.4c8.6,8.8,12.4,19.6,12.5,31.7
		c0.2,22.2,0.5,44.5,0.2,66.7c-0.1,7.1,2.2,12.2,7.3,17.2c39.9,39.5,79.7,79.2,119.5,118.7c2,2,5.1,3,7.6,4.5
		c0.9-2.9,2.5-5.8,2.5-8.6c0.3-47,0.5-93.9,0.6-140.9c0.2-78.9,0.5-157.8,0.5-236.6c0-38.9-0.3-77.7-0.5-116.6
		c0-2.5-0.2-4.9-0.3-7.4c-0.2-6.4-3.6-9.3-9.9-9.3c-39.5,0.4-79.1,0.7-118.6,1c-6.3,0-7.8,3.6-7.8,9.2c0.1,20.2,0.2,40.4-0.1,60.7
		c0,3-1.9,6-3,9c-3.1-1.5-6.8-2.4-9.1-4.8c-14.7-15.1-28.9-30.8-43.7-45.9c-18.9-19.2-38.1-38.1-57.3-56.9
		c-13-12.7-26.3-25.1-39.5-37.6c-1-0.9-2-1.9-2.8-2.9c-3.3-4.2-2.6-6.5,2.9-6.9c10.5-0.8,21.1-1.3,31.6-1.3
		c107.6,0.4,215.3,0.9,322.9,1.4c2.7,0,5.4,0.2,8,0.7c8.1,1.4,11,4.2,11.4,12.5c0.6,12.1,0.9,24.3,1,36.4
		c0.4,178.9,0.5,357.8,1,536.6c0.2,66.7,1.1,133.5,1.6,200.2c0,3.7-0.5,7.5-0.8,11.2C501.6,1039.1,500.9,1039.4,500.2,1039.7z"/>
	<path class="st0" d="M807.6,191.6c-6.4-1.4-13-2.4-19.3-4.2c-51.8-14.7-103.6-29.6-155.5-44.1c-18.2-5.1-36.6-9.2-54.9-13.7
		c-4.6-1.1-9.1-2.4-13.6-3.8c-14.9-4.4-29.5-5.5-44.9-1c-47.9,13.8-96.1,26.5-144.1,39.7c-33.3,9.1-66.6,18.4-100,27.5
		c-1.9,0.5-3.8,0.6-5.7,0.9c-0.4-0.7-0.8-1.4-1.2-2c5.7-3.9,11.1-8.3,17.1-11.6c38.6-21.5,77.6-42.5,116-64.4
		c42.1-24,83.9-48.7,125.6-73.4c8.6-5.1,16.3-5.8,25.1-0.4c21.7,13.2,43.6,25.9,65.5,38.6c30.8,18,61.6,36.1,92.6,53.6
		c27.8,15.6,56,30.4,84,45.7c5,2.8,9.5,6.5,14.2,9.8C808.3,189.8,808,190.7,807.6,191.6z"/>
	<path class="st0" d="M46,547.3c2.3,6.6,5,13.2,6.9,19.9C66,613.4,78.8,659.6,92,705.7c5.1,17.9,11,35.6,17,53.2
		c1.4,4.1,4.2,8,7.2,11.1c41.7,43.7,83.5,87.3,125.3,131c8.3,8.7,16.4,17.6,24.6,26.4c-0.4,0.6-0.8,1.1-1.2,1.7
		c-2.6-1.4-5.2-2.6-7.7-4.1c-51.4-30.4-102.8-60.8-154.3-91.1c-15.3-9-30.7-17.8-46.3-26.3c-8.8-4.8-12.4-11.7-12.4-21.8
		c0-77.3-0.3-154.6-0.5-231.8c0-2.1,0.3-4.2,0.4-6.3C44.8,547.6,45.4,547.5,46,547.3z"/>
	<path class="st0" d="M814.9,927.6c3.9-4.3,7.6-8.6,11.6-12.7c44.9-46.6,89.7-93.2,134.9-139.5c7.6-7.8,12.8-16.5,15.7-26.9
		c11.9-41.9,24-83.7,35.9-125.6c5.5-19.4,10.7-39,16.1-58.4c1-3.5,2.6-6.8,3.9-10.2c0.7,0.1,1.4,0.2,2.1,0.4
		c0.4,2.9,1.2,5.9,1.2,8.8c-0.3,53.5-0.6,106.9-0.9,160.4c-0.1,20.4-0.2,40.9,0.3,61.3c0.3,10.8-4.5,17.4-13.5,22.7
		c-44.1,25.6-88.1,51.4-132,77.2c-23.4,13.8-46.7,27.7-70.1,41.6c-1.3,0.8-2.8,1.4-4.1,2.1C815.6,928.4,815.2,928,814.9,927.6z"/>
</g>
</svg>
