<?xml version="1.0" encoding="utf-8"?>
<!-- Generator: Adobe Illustrator 25.4.1, SVG Export Plug-In . SVG Version: 6.00 Build 0)  -->
<svg version="1.1" id="Capa_1" xmlns="http://www.w3.org/2000/svg" xmlns:xlink="http://www.w3.org/1999/xlink" x="0px" y="0px"
	 viewBox="0 0 1004.1 160.3" style="enable-background:new 0 0 1004.1 160.3;" xml:space="preserve">
<style type="text/css">
	.st0{fill:#FFFFFF;}
</style>
<g>
	<g>
		<path class="st0" d="M88.9,139c0-0.4-0.1-0.9-0.1-1.3c0.1-12.7,0.2-25.3,0.2-38c0-17.1,0.1-34.2,0.1-51.3c0-0.6,0-1.2,0.1-1.8
			c0.1-1.1,0.5-1.4,1.6-1.4c2.9,0,5.8,0,8.6,0c10.9,0,21.8,0,32.7,0c0.5,0,1.1,0.3,1.6,0.4c-0.3,0.5-0.5,1-0.9,1.4
			c-2.2,2.4-4.4,4.7-6.5,7.1c-0.4,0.4-0.5,1.2-0.5,1.8c-0.1,5.6-0.1,11.3-0.1,16.9c0,9.1,0,18.1,0.1,27.2c0,2-0.8,3.4-2.2,4.8
			c-7.9,7.9-15.8,15.8-23.6,23.7c-3.4,3.4-6.8,6.7-10.1,10.1c-0.2,0.2-0.5,0.4-0.7,0.6C89,139.1,88.9,139,88.9,139z M99.2,84.6
			C99.2,84.6,99.2,84.6,99.2,84.6c0,7,0,13.9,0.1,20.9c0,2.9,0,5.8,0.1,8.6c0,0.3,0.2,0.6,0.3,0.8c0.2-0.1,0.4-0.2,0.6-0.3
			c4.7-4.7,9.4-9.4,14.2-14.1c0.7-0.7,0.9-1.3,0.9-2.2c0-14.3,0-28.7,0-43c0-1.1-0.2-1.3-1.3-1.3c-4.5,0-9.1-0.1-13.6-0.1
			c-0.9,0-1.1,0.3-1.2,1.1c0,0.9-0.1,1.7-0.1,2.6C99.2,66.7,99.2,75.7,99.2,84.6z"/>
		<path class="st0" d="M79.8,138.9c-0.3-0.2-0.6-0.5-0.9-0.7c-4.6-4.6-9.2-9.2-13.8-13.8c-4.7-4.7-9.5-9.4-14.2-14.1
			c-2.3-2.3-4.5-4.6-6.8-6.9c-0.7-0.7-1-1.4-1-2.4c0-6.3,0.1-12.6,0.1-18.8c0-1,0-1.9,0-2.8c0-0.3,0.2-0.5,0.3-0.8
			c0.2,0.1,0.5,0.2,0.7,0.4c2,2,4,4,6,6c0.6,0.6,1.2,1.2,1.8,1.9c1,1,1.5,2.3,1.5,3.8c0,2.6,0.1,5.3,0,7.9c0,0.8,0.2,1.3,0.8,1.9
			c4.7,4.7,9.5,9.4,14.2,14.1c0.2,0.2,0.5,0.3,0.8,0.4c0.1-0.3,0.3-0.6,0.3-0.9c0-2,0-4.1,0-6.1c0-12.7,0.1-25.5,0.1-38.2
			c0-4.6,0-9.3-0.1-13.9c0-0.3,0-0.5,0-0.8c0-0.8-0.4-1.1-1.2-1.1c-4.6,0-9.2,0.1-13.8,0.1c-0.9,0-1.1,0.2-1.1,1.2
			c0,2.4,0,4.7,0,7.1c0,0.3-0.2,0.7-0.4,1c-0.3-0.1-0.7-0.2-1-0.5c-1.7-1.8-3.4-3.6-5.1-5.4c-2.3-2.3-4.5-4.5-6.8-6.8
			c-1.5-1.5-3.1-3-4.7-4.5c-0.2-0.2-0.3-0.6-0.5-0.8c0.3-0.1,0.6-0.3,0.9-0.3c1.3-0.1,2.5-0.1,3.8-0.1c11.3,0,22.5,0.1,33.8,0.2
			c1.3,0,2.6,0,3.9,0c1.7,0,2.1,0.4,2.1,2.1c0.1,6.8,0.1,13.6,0.1,20.3c0.1,17.1,0.1,34.1,0.2,51.2c0,6.3,0.1,12.6,0.1,18.8
			c0,0.4-0.1,0.8-0.1,1.2C79.9,138.9,79.8,138.9,79.8,138.9z"/>
		<path class="st0" d="M115.9,39.3c-0.8-0.2-1.6-0.3-2.4-0.5c-6.4-1.8-12.8-3.6-19.3-5.4c-2.8-0.8-5.6-1.4-8.4-2.1
			c-1.6-0.4-3.1,0.1-4.7,0.5c-5.9,1.6-11.8,3.3-17.7,4.9c-3.4,0.9-6.8,1.8-10.2,2.8c-0.2,0.1-0.4,0.1-0.7,0.1c0-0.1-0.1-0.2-0.1-0.2
			c0.7-0.5,1.3-1,2.1-1.4c4.5-2.5,9.1-5,13.6-7.6c4.9-2.8,9.8-5.7,14.7-8.6c1-0.6,1.9-0.7,2.9-0.1c2.6,1.6,5.2,3.1,7.8,4.6
			c1.9,1.1,3.8,2.2,5.7,3.3c3.7,2.1,7.3,4.2,11,6.2c1.6,0.9,3.3,1.8,4.9,2.7c0.2,0.1,0.4,0.4,0.7,0.5
			C115.9,39.1,115.9,39.2,115.9,39.3z"/>
		<path class="st0" d="M26.4,81.1c0.3,0.8,0.6,1.5,0.8,2.3c2.1,7.1,4.1,14.2,6.1,21.3c0.4,1.6,1.4,2.7,2.4,3.8
			c4.6,4.8,9.2,9.6,13.8,14.4c0.9,0.9,1.8,1.9,2.6,2.9c0,0.1-0.1,0.1-0.1,0.2c-0.3-0.1-0.6-0.3-0.8-0.4c-6.1-3.6-12.1-7.2-18.2-10.7
			c-1.8-1.1-3.6-2.1-5.4-3.1c-1-0.6-1.5-1.4-1.4-2.6c0-9.1,0-18.1-0.1-27.2c0-0.3,0-0.5,0-0.8C26.3,81.1,26.4,81.1,26.4,81.1z"/>
		<path class="st0" d="M116.7,125.8c0.6-0.7,1.2-1.4,1.8-2c4.3-4.5,8.7-9,13.1-13.5c1-1,2-2,2.9-3.1c0.6-0.7,1-1.6,1.2-2.5
			c1.5-4.9,2.8-9.8,4.2-14.7c0.6-2.3,1.3-4.6,1.9-6.9c0.1-0.4,0.3-0.8,0.4-1.2c0.1,0,0.2,0,0.2,0c0.1,0.3,0.2,0.7,0.2,1
			c0,3.7-0.1,7.3-0.1,11c0,4.8-0.1,9.6,0,14.4c0,1.8-0.6,2.8-2.2,3.7c-6.9,4-13.8,8-20.7,12.1c-1,0.6-2,1.2-3,1.8
			C116.8,125.9,116.8,125.8,116.7,125.8z"/>
	</g>
	<g>
		<path class="st0" d="M787.4,113.6c3.9-5.2,7.1-9.9,10.9-14c1.3-1.4,4.2-1.7,6.4-1.7c14-0.1,28,0,42,0c2.4,0,5.2,0.3,7.3-0.6
			c1.8-0.8,3.8-3,4-4.8c0.1-1.7-1.7-4.1-3.4-5.1c-1.7-1-4.1-0.9-6.3-0.9c-11.7-0.1-23.4-0.1-35-0.2c-3.2,0-6.5,0-9.6-0.7
			c-10.6-2.5-15.9-10.1-15.3-21c0.6-9.3,8.4-17.1,18.8-18.4c3.5-0.4,7-0.7,10.6-0.7c17.4-0.1,34.7-0.1,52.1-0.1
			c1.4,0,2.8,0.7,4.2,1.1c-0.6,1.3-0.8,2.9-1.7,4c-12.4,15.2-6.2,12.2-25.7,12.5c-10.3,0.2-20.6,0.1-30.9,0.1
			c-3.5,0-7.1,0.2-7.5,4.9c-0.3,3.3,2.5,5.6,7.5,5.7c11.8,0.2,23.7,0.2,35.5,0.3c3.2,0,6.5,0,9.7,0.4c9,0.9,15,5.9,16.4,13.6
			c1.9,9.6-1.9,19.1-9.8,22.8c-3.5,1.7-7.6,3.1-11.4,3.2c-21.7,0.5-43.3,0.5-65,0.7C790.3,114.7,789.4,114.2,787.4,113.6z"/>
		<path class="st0" d="M887.7,113.5c4.2-5.3,7.5-10.1,11.4-14.2c1.3-1.4,4.3-1.5,6.5-1.5c14-0.1,28,0.1,42,0.1
			c2.1,0,4.6,0.3,6.3-0.6c2-1.1,4.2-3.4,4.4-5.3c0.1-1.6-2.4-3.7-4.2-5c-1.1-0.8-3-0.6-4.5-0.6c-12.1-0.1-24.3,0-36.4-0.2
			c-3.4,0-6.8-0.2-10-1.1c-9.1-2.3-14.1-8.7-14.6-17.9c-0.4-9,4-16.4,12.7-19.3c4.9-1.6,10.2-2.5,15.3-2.5
			c17.2-0.3,34.4-0.1,51.7,0.1c1.8,0,3.7,1,5.5,1.5c-0.8,1.6-1.5,3.2-2.3,4.8c-4.8,8.8-11.9,12-22,11.3c-10.9-0.8-21.8-0.1-32.7,0
			c-3.5,0-7.5-0.4-8,4.7c-0.3,3.6,2.7,5.8,8.3,5.8c12.1,0.2,24.3,0,36.4,0.4c4.7,0.1,9.5,0.7,14,2.1c6.1,1.8,9.8,6.4,10.4,12.8
			c0.7,7.4,0.1,15-6.8,19.3c-4.5,2.8-10.1,5.3-15.4,5.5c-21.2,0.8-42.4,0.6-63.6,0.8C891.1,114.6,890.2,114.2,887.7,113.5z"/>
		<path class="st0" d="M773.6,73c-3.5,9.7-9,13.9-18,14c-9.2,0.1-18.4,0-27.7,0.1c-3.5,0-6.2,0.3-6.2,5.2c0,5,2.6,5.6,6.4,5.5
			c14.6,0,29.2,0,43.8,0.1c1.7,0,3.4,0.8,5.1,1.3c-0.7,1.6-1.4,3.3-2.2,4.8c-4.4,8.7-11.4,11.2-21.1,10.7
			c-15.2-0.8-30.4-0.2-45.6-0.2c-6.1,0-6.4-0.3-6.5-6.6c-0.1-18.9-0.2-37.8-0.4-56.7c-0.1-4.5,1.8-6,6-6c21.7,0.1,43.3,0,65,0.1
			c1.6,0,3.1,0.8,4.7,1.2c-0.6,1.6-0.9,3.4-1.9,4.8c-8.6,11.6-8.7,11.6-23.3,11.6c-8.1,0-16.3,0-24.4,0c-2.9,0-5.3,0.4-5.3,4.1
			c0,3.6,1.6,5.3,5.3,5.3c13.4-0.1,26.7-0.1,40.1-0.1C769.4,72.4,771.4,72.8,773.6,73z"/>
		<path class="st0" d="M666.6,85.8c0.4-3.1,0.8-4.7,0.8-6.3c0.1-9.4,0.2-18.8,0-28.1c-0.1-4.2,1.6-5.8,5.6-5.9
			c15.8-0.2,12.7-0.9,12.8,12.1c0.1,15.2,0.1,30.4-0.1,45.6c-0.1,7.3-3.3,11.2-9.4,12.2c-4.4,0.7-7.7-1.4-10.7-4.2
			c-11.5-10.6-23.1-21.2-34.7-31.7c-1.5-1.4-3.5-2.2-5.2-3.4c-0.5,2.1-1.3,4.2-1.4,6.4c-0.2,8.9-0.2,17.8-0.1,26.7
			c0,3.7-1.5,5.4-5.2,5.2c-3.1-0.1-6.2-0.1-9.2,0c-3.2,0.1-4.5-1.4-4.5-4.4c0-18-0.1-36,0.1-53.9c0.1-4.6,1.8-8.8,6.6-10.7
			c5.2-2.1,9.7-0.7,13.6,2.9c10.3,9.4,20.5,19,30.8,28.5C659.5,79.7,662.6,82.3,666.6,85.8z"/>
		<path class="st0" d="M286,114.5c-7.2,0-14.4-0.1-21.7,0c-4.1,0.1-5.8-1.6-5.8-5.8c0.1-10.4,0.1-20.9-0.1-31.4
			c0-3.7,1.3-5.4,5.1-5.3c3.4,0.1,6.8,0.1,10.1,0.1c3.4,0,5.1,1.7,5.2,5.1c0.1,5.1,0.3,10.1,0.2,15.2c0,3.7,1.4,5.3,5.2,5.2
			c8-0.2,16,0.4,23.9-0.4c12.9-1.3,20-14.7,13.7-25.5c-3.2-5.5-8.5-8.5-14.9-8.6c-13.5-0.3-27-0.1-40.6-0.3c-1.8,0-3.6-0.9-5.5-1.4
			c0.7-1.6,1.4-3.3,2.2-4.9c4.5-9,11.6-12.5,21.7-11.3c8.8,1,17.9-0.1,26.7,1c14,1.8,25.4,8.3,30.9,22.2c6.3,16-1.8,34.5-18.6,41.3
			c-6.3,2.5-13.3,3.6-20,4.4c-5.9,0.7-12,0.1-18,0.1C286,114.4,286,114.5,286,114.5z"/>
		<path class="st0" d="M427.8,45.5c10.3,0,20.6-0.1,30.9,0.1c1.6,0,3.1,0.9,4.7,1.3c-0.6,1.5-0.9,3.2-1.7,4.4
			c-8.4,11.8-8.4,11.8-22.8,11.7c-7.2-0.1-14.4,0-21.7,0c-3.3,0-6.1,0.2-6,4.9c0.1,4.6,2.7,5.2,6.3,5.1c12.1-0.1,24.3-0.2,36.4-0.1
			c1.9,0,3.8,0.7,5.6,1.1c-0.8,1.9-1.6,3.8-2.4,5.6c-0.3,0.7-1,1.2-1.4,1.9c-3.5,6.1-8.6,8.5-15.7,7.9c-7.5-0.6-15-0.2-22.6-0.2
			c-5.8,0-6.3,0.7-6.3,6.3c0,4.8-0.1,9.5-0.1,14.3c0,3.2-1.6,4.7-4.9,4.7c-3.7-0.1-7.4,0-11.1,0.1c-3.1,0.1-4.5-1.5-4.5-4.5
			c0-20.1,0-40.2,0.1-60.4c0-3.6,2.5-4.2,5.3-4.2C406.6,45.5,417.2,45.5,427.8,45.5C427.8,45.5,427.8,45.5,427.8,45.5z"/>
		<path class="st0" d="M508.5,61.1c3.4-4.6,6.6-9.5,10.4-13.8c1.3-1.4,4.2-1.7,6.4-1.7c21.4-0.2,42.7-0.2,64.1-0.2
			c1.7,0,3.3,0.9,5,1.5c-0.7,1.5-1.4,2.9-2.1,4.4c-4.9,9.8-12.6,13.1-23.6,12.1c-11-1-9.5-0.4-9.6,9.6c0,12-0.1,24,0.1,36
			c0.1,4.5-1.6,6.2-5.9,5.7c-2.7-0.3-5.5-0.1-8.3-0.1c-6-0.1-6.3-0.4-6.4-6.3c-0.1-12.6-0.1-25.2-0.1-37.8c0-7.1-0.2-7.3-7.1-7.4
			c-5.7-0.1-11.4,0-17.1-0.1c-1.6,0-3.2-0.3-4.8-0.4C509.1,62.1,508.8,61.6,508.5,61.1z"/>
		<path class="st0" d="M179.7,113.4c2.3-8.9,9.5-15.1,18.2-15.5c3.8-0.2,7.7-0.2,11.5-0.6c9.6-0.9,14-5.6,14.1-15.2
			c0.1-10.3,0.2-20.6,0.1-30.9c-0.1-3.9,1.4-5.4,5.3-5.7c14.9-1,14.9-1.1,14.8,13.8c0,9.4,0.4,18.8-0.5,28.1
			c-1.3,13.8-8.1,22.3-21.6,24.5c-13.1,2.1-26.5,1.7-39.8,2.3C181,114.3,180.3,113.7,179.7,113.4z"/>
		<path class="st0" d="M476.7,79.9c0-9.8,0.1-19.6-0.1-29.5c-0.1-3.4,1.2-4.9,4.4-5c3.8-0.1,7.7-0.1,11.5-0.1c2.9,0,4.5,1.5,4.5,4.6
			c0,20,0,39.9,0.1,59.9c0,3.8-1.8,5.2-5.4,5c-3.4-0.2-6.8-0.3-10.1-0.2c-3.6,0.2-5-1.4-4.9-4.9C476.8,99.9,476.8,89.9,476.7,79.9
			C476.7,79.9,476.7,79.9,476.7,79.9z"/>
	</g>
</g>
</svg>
