<?xml version="1.0" encoding="utf-8"?>
<!-- Generator: Adobe Illustrator 25.4.1, SVG Export Plug-In . SVG Version: 6.00 Build 0)  -->
<svg version="1.1" id="Capa_1" xmlns="http://www.w3.org/2000/svg" xmlns:xlink="http://www.w3.org/1999/xlink" x="0px" y="0px"
	 viewBox="0 0 503 171" style="enable-background:new 0 0 503 171;" xml:space="preserve">
<style type="text/css">
	.st0{fill:#02ADED;}
	.st1{fill:#FFFFFF;}
</style>
<g>
	<g>
		<path class="st0" d="M41.4,115.4c0-0.2,0-0.4,0-0.7c0-6.4,0.1-12.9,0.1-19.3c0-8.7,0-17.4,0-26.1c0-0.3,0-0.6,0.1-0.9
			c0.1-0.6,0.2-0.7,0.8-0.7c1.5,0,2.9,0,4.4,0c5.5,0,11.1,0,16.6,0c0.3,0,0.5,0.1,0.8,0.2c-0.2,0.2-0.3,0.5-0.5,0.7
			c-1.1,1.2-2.2,2.4-3.3,3.6c-0.2,0.2-0.3,0.6-0.3,0.9c0,2.9,0,5.7,0,8.6c0,4.6,0,9.2,0,13.8c0,1-0.4,1.8-1.1,2.4c-4,4-8,8-12,12.1
			c-1.7,1.7-3.4,3.4-5.2,5.1c-0.1,0.1-0.2,0.2-0.3,0.3C41.5,115.5,41.5,115.4,41.4,115.4z M46.7,87.8C46.7,87.8,46.7,87.8,46.7,87.8
			c0,3.5,0,7.1,0,10.6c0,1.5,0,2.9,0,4.4c0,0.1,0.1,0.3,0.1,0.4c0.1-0.1,0.2-0.1,0.3-0.2c2.4-2.4,4.8-4.8,7.2-7.2
			c0.3-0.3,0.5-0.7,0.5-1.1c0-7.3,0-14.6,0-21.9c0-0.5-0.1-0.7-0.7-0.7c-2.3,0-4.6,0-6.9,0c-0.4,0-0.6,0.1-0.6,0.6
			c0,0.4,0,0.9,0,1.3C46.7,78.7,46.7,83.2,46.7,87.8z"/>
		<path class="st0" d="M36.8,115.4c-0.1-0.1-0.3-0.2-0.4-0.4c-2.3-2.3-4.7-4.7-7-7c-2.4-2.4-4.8-4.8-7.2-7.2
			c-1.2-1.2-2.3-2.3-3.5-3.5c-0.3-0.3-0.5-0.7-0.5-1.2c0-3.2,0-6.4,0-9.6c0-0.5,0-1,0-1.4c0-0.1,0.1-0.3,0.1-0.4
			c0.1,0.1,0.3,0.1,0.4,0.2c1,1,2,2,3,3c0.3,0.3,0.6,0.6,0.9,0.9c0.5,0.5,0.8,1.2,0.8,1.9c0,1.3,0,2.7,0,4c0,0.4,0.1,0.7,0.4,1
			c2.4,2.4,4.8,4.8,7.2,7.2c0.1,0.1,0.3,0.1,0.4,0.2c0.1-0.1,0.1-0.3,0.1-0.4c0-1,0-2.1,0-3.1c0-6.5,0-13,0-19.4c0-2.4,0-4.7,0-7.1
			c0-0.1,0-0.3,0-0.4c0-0.4-0.2-0.6-0.6-0.5c-2.3,0-4.7,0-7,0.1c-0.5,0-0.5,0.1-0.5,0.6c0,1.2,0,2.4,0,3.6c0,0.2-0.1,0.3-0.2,0.5
			c-0.2-0.1-0.4-0.1-0.5-0.2c-0.9-0.9-1.7-1.8-2.6-2.7c-1.1-1.2-2.3-2.3-3.5-3.5c-0.8-0.8-1.6-1.5-2.4-2.3c-0.1-0.1-0.2-0.3-0.2-0.4
			c0.1-0.1,0.3-0.1,0.4-0.2c0.6,0,1.3-0.1,1.9,0c5.7,0,11.5,0.1,17.2,0.1c0.7,0,1.3,0,2,0c0.9,0,1.1,0.2,1.1,1.1
			c0,3.4,0,6.9,0.1,10.3c0,8.7,0.1,17.3,0.1,26c0,3.2,0,6.4,0.1,9.6c0,0.2,0,0.4-0.1,0.6C36.9,115.4,36.8,115.4,36.8,115.4z"/>
		<path class="st0" d="M55.1,64.7c-0.4-0.1-0.8-0.2-1.2-0.3c-3.3-0.9-6.5-1.9-9.8-2.8c-1.4-0.4-2.8-0.7-4.2-1.1
			c-0.8-0.2-1.6,0-2.4,0.2c-3,0.8-6,1.7-9,2.5c-1.7,0.5-3.4,0.9-5.2,1.4c-0.1,0-0.2,0-0.3,0.1c0,0,0-0.1-0.1-0.1
			c0.4-0.2,0.7-0.5,1.1-0.7c2.3-1.3,4.6-2.5,6.9-3.8c2.5-1.4,5-2.9,7.5-4.4c0.5-0.3,1-0.4,1.5,0c1.3,0.8,2.6,1.6,3.9,2.3
			c1,0.6,1.9,1.1,2.9,1.7c1.9,1.1,3.7,2.1,5.6,3.2c0.8,0.5,1.7,0.9,2.5,1.4c0.1,0.1,0.2,0.2,0.3,0.3C55.2,64.6,55.2,64.7,55.1,64.7z
			"/>
		<path class="st0" d="M9.7,86c0.1,0.4,0.3,0.8,0.4,1.2c1,3.6,2.1,7.2,3.1,10.8c0.2,0.8,0.7,1.4,1.2,1.9c2.3,2.4,4.7,4.9,7,7.3
			c0.5,0.5,0.9,1,1.3,1.5c0,0,0,0.1-0.1,0.1c-0.1-0.1-0.3-0.1-0.4-0.2c-3.1-1.8-6.2-3.6-9.3-5.5c-0.9-0.5-1.8-1.1-2.8-1.6
			c-0.5-0.3-0.7-0.7-0.7-1.3c0-4.6,0-9.2,0-13.8c0-0.1,0-0.3,0-0.4C9.6,86,9.6,86,9.7,86z"/>
		<path class="st0" d="M55.6,108.7c0.3-0.3,0.6-0.7,0.9-1c2.2-2.3,4.4-4.6,6.6-6.8c0.5-0.5,1-1,1.5-1.6c0.3-0.4,0.5-0.8,0.6-1.3
			c0.7-2.5,1.4-5,2.2-7.5c0.3-1.2,0.6-2.3,1-3.5c0.1-0.2,0.1-0.4,0.2-0.6c0,0,0.1,0,0.1,0c0,0.2,0.1,0.3,0.1,0.5c0,1.9,0,3.7,0,5.6
			c0,2.4,0,4.9,0,7.3c0,0.9-0.3,1.4-1.1,1.9c-3.5,2-7,4.1-10.5,6.1C56.6,108.2,56.1,108.5,55.6,108.7
			C55.6,108.7,55.6,108.7,55.6,108.7z"/>
	</g>
	<g>
		<path class="st1" d="M396.6,102.5c2-2.6,3.6-5,5.5-7.1c0.6-0.7,2.1-0.9,3.2-0.9c7.1-0.1,14.2,0,21.3,0c1.2,0,2.6,0.1,3.7-0.3
			c0.9-0.4,1.9-1.5,2-2.4c0.1-0.8-0.9-2.1-1.7-2.6c-0.8-0.5-2.1-0.5-3.2-0.5c-5.9-0.1-11.9,0-17.8-0.1c-1.6,0-3.3,0-4.9-0.4
			c-5.4-1.3-8.1-5.1-7.8-10.7c0.3-4.7,4.3-8.7,9.6-9.4c1.8-0.2,3.6-0.3,5.4-0.3c8.8,0,17.7-0.1,26.5,0c0.7,0,1.4,0.4,2.1,0.6
			c-0.3,0.7-0.4,1.5-0.9,2c-6.3,7.7-3.1,6.2-13.1,6.4c-5.2,0.1-10.5,0.1-15.7,0.1c-1.8,0-3.6,0.1-3.8,2.5c-0.2,1.7,1.3,2.8,3.8,2.9
			c6,0.1,12,0.1,18.1,0.2c1.6,0,3.3,0,4.9,0.2c4.6,0.5,7.6,3,8.4,6.9c0.9,4.9-1,9.7-5,11.6c-1.8,0.9-3.9,1.6-5.8,1.6
			c-11,0.2-22,0.3-33.1,0.4C398,103,397.6,102.8,396.6,102.5z"/>
		<path class="st1" d="M447.5,102.5c2.1-2.7,3.8-5.1,5.8-7.2c0.7-0.7,2.2-0.7,3.3-0.7c7.1,0,14.2,0.1,21.3,0.1
			c1.1,0,2.4,0.2,3.2-0.3c1-0.6,2.1-1.7,2.2-2.7c0.1-0.8-1.2-1.9-2.1-2.5c-0.5-0.4-1.5-0.3-2.3-0.3c-6.2,0-12.4,0-18.5-0.1
			c-1.7,0-3.5-0.1-5.1-0.5c-4.6-1.2-7.2-4.4-7.4-9.1c-0.2-4.6,2.1-8.4,6.4-9.8c2.5-0.8,5.2-1.2,7.8-1.3c8.8-0.1,17.5,0,26.3,0.1
			c0.9,0,1.9,0.5,2.8,0.8c-0.4,0.8-0.7,1.6-1.2,2.4c-2.4,4.5-6.1,6.1-11.2,5.7c-5.5-0.4-11.1-0.1-16.6,0c-1.8,0-3.8-0.2-4.1,2.4
			c-0.2,1.8,1.4,2.9,4.2,3c6.2,0.1,12.4,0,18.5,0.2c2.4,0.1,4.8,0.4,7.1,1.1c3.1,0.9,5,3.3,5.3,6.5c0.4,3.8,0.1,7.6-3.5,9.8
			c-2.3,1.4-5.2,2.7-7.8,2.8c-10.8,0.4-21.6,0.3-32.4,0.4C449.3,103,448.8,102.8,447.5,102.5z"/>
		<path class="st1" d="M389.6,81.9c-1.8,4.9-4.6,7.1-9.2,7.1c-4.7,0.1-9.4,0-14.1,0c-1.8,0-3.2,0.2-3.2,2.6c0,2.5,1.3,2.8,3.3,2.8
			c7.4,0,14.8,0,22.3,0c0.9,0,1.7,0.4,2.6,0.7c-0.4,0.8-0.7,1.7-1.1,2.5c-2.3,4.4-5.8,5.7-10.7,5.4c-7.7-0.4-15.5-0.1-23.2-0.1
			c-3.1,0-3.3-0.1-3.3-3.3c-0.1-9.6-0.1-19.2-0.2-28.8c0-2.3,0.9-3,3.1-3c11,0,22,0,33.1,0c0.8,0,1.6,0.4,2.4,0.6
			c-0.3,0.8-0.5,1.7-1,2.4c-4.4,5.9-4.4,5.9-11.9,5.9c-4.1,0-8.3,0-12.4,0c-1.5,0-2.7,0.2-2.7,2.1c0,1.8,0.8,2.7,2.7,2.7
			c6.8-0.1,13.6-0.1,20.4,0C387.4,81.5,388.4,81.7,389.6,81.9z"/>
		<path class="st1" d="M335.2,88.4c0.2-1.6,0.4-2.4,0.4-3.2c0-4.8,0.1-9.5,0-14.3c-0.1-2.1,0.8-3,2.9-3c8-0.1,6.5-0.4,6.5,6.1
			c0.1,7.7,0,15.5,0,23.2c0,3.7-1.7,5.7-4.8,6.2c-2.2,0.4-3.9-0.7-5.5-2.1c-5.9-5.4-11.7-10.8-17.6-16.1c-0.8-0.7-1.8-1.1-2.6-1.7
			c-0.2,1.1-0.7,2.2-0.7,3.2c-0.1,4.5-0.1,9.1-0.1,13.6c0,1.9-0.8,2.7-2.6,2.7c-1.6-0.1-3.1-0.1-4.7,0c-1.6,0.1-2.3-0.7-2.3-2.2
			c0-9.1,0-18.3,0.1-27.4c0-2.3,0.9-4.4,3.4-5.5c2.6-1.1,4.9-0.3,6.9,1.5c5.2,4.8,10.4,9.7,15.7,14.5
			C331.5,85.3,333.1,86.6,335.2,88.4z"/>
		<path class="st1" d="M141.6,103c-3.7,0-7.3,0-11,0c-2.1,0-3-0.8-2.9-2.9c0.1-5.3,0-10.6,0-15.9c0-1.9,0.7-2.8,2.6-2.7
			c1.7,0.1,3.4,0,5.2,0c1.7,0,2.6,0.9,2.6,2.6c0.1,2.6,0.1,5.2,0.1,7.7c0,1.9,0.7,2.7,2.7,2.7c4.1-0.1,8.1,0.2,12.2-0.2
			c6.6-0.7,10.2-7.5,7-13c-1.6-2.8-4.3-4.3-7.6-4.4c-6.9-0.1-13.8-0.1-20.6-0.1c-0.9,0-1.9-0.5-2.8-0.7c0.4-0.8,0.7-1.7,1.1-2.5
			c2.3-4.6,5.9-6.4,11.1-5.8c4.5,0.5,9.1-0.1,13.6,0.5c7.1,0.9,12.9,4.2,15.7,11.3c3.2,8.1-0.9,17.6-9.5,21
			c-3.2,1.3-6.7,1.8-10.2,2.2c-3,0.4-6.1,0.1-9.1,0.1C141.6,102.9,141.6,103,141.6,103z"/>
		<path class="st1" d="M213.7,67.9c5.2,0,10.5,0,15.7,0c0.8,0,1.6,0.4,2.4,0.7c-0.3,0.8-0.4,1.6-0.9,2.3c-4.3,6-4.3,6-11.6,6
			c-3.7,0-7.3,0-11,0c-1.7,0-3.1,0.1-3,2.5c0.1,2.3,1.4,2.6,3.2,2.6c6.2-0.1,12.3-0.1,18.5-0.1c1,0,1.9,0.4,2.9,0.6
			c-0.4,1-0.8,1.9-1.2,2.8c-0.2,0.3-0.5,0.6-0.7,0.9c-1.8,3.1-4.4,4.3-8,4c-3.8-0.3-7.6-0.1-11.5-0.1c-2.9,0-3.2,0.3-3.2,3.2
			c0,2.4,0,4.8-0.1,7.3c0,1.6-0.8,2.4-2.5,2.4c-1.9,0-3.7,0-5.6,0.1c-1.6,0-2.3-0.7-2.3-2.3c0-10.2,0-20.5,0-30.7
			c0-1.8,1.3-2.1,2.7-2.1C202.9,67.9,208.3,67.9,213.7,67.9C213.7,67.9,213.7,67.9,213.7,67.9z"/>
		<path class="st1" d="M254.8,75.8c1.7-2.4,3.3-4.8,5.3-7c0.6-0.7,2.2-0.9,3.3-0.9c10.9-0.1,21.7-0.1,32.6-0.1
			c0.8,0,1.7,0.5,2.5,0.7c-0.4,0.7-0.7,1.5-1.1,2.2c-2.5,5-6.4,6.7-12,6.2c-5.6-0.5-4.9-0.2-4.9,4.9c0,6.1-0.1,12.2,0,18.3
			c0,2.3-0.8,3.1-3,2.9c-1.4-0.1-2.8,0-4.2-0.1c-3.1-0.1-3.2-0.2-3.2-3.2c-0.1-6.4,0-12.8-0.1-19.2c0-3.6-0.1-3.7-3.6-3.8
			c-2.9,0-5.8,0-8.7-0.1c-0.8,0-1.6-0.1-2.5-0.2C255.1,76.3,254.9,76.1,254.8,75.8z"/>
		<path class="st1" d="M87.6,102.4c1.2-4.5,4.8-7.7,9.2-7.9c1.9-0.1,3.9-0.1,5.8-0.3c4.9-0.4,7.1-2.8,7.2-7.7
			c0.1-5.2,0.1-10.5,0-15.7c0-2,0.7-2.8,2.7-2.9c7.6-0.5,7.6-0.6,7.5,7c0,4.8,0.2,9.5-0.2,14.3c-0.7,7-4.1,11.4-11,12.5
			c-6.6,1.1-13.5,0.8-20.3,1.2C88.3,102.8,87.9,102.6,87.6,102.4z"/>
		<path class="st1" d="M238.6,85.4c0-5,0.1-10,0-15c0-1.7,0.6-2.5,2.3-2.5c1.9,0,3.9-0.1,5.9,0c1.5,0,2.3,0.7,2.3,2.3
			c0,10.1,0,20.3,0.1,30.4c0,1.9-0.9,2.6-2.7,2.6c-1.7-0.1-3.4-0.1-5.1-0.1c-1.8,0.1-2.5-0.7-2.5-2.5
			C238.7,95.5,238.6,90.4,238.6,85.4C238.6,85.4,238.6,85.4,238.6,85.4z"/>
	</g>
</g>
</svg>
